<mxfile host="app.diagrams.net" modified="2021-03-17T07:05:19.228Z" agent="5.0 (Macintosh; Intel Mac OS X 10_15_6) AppleWebKit/605.1.15 (KHTML, like Gecko) Version/14.0.3 Safari/605.1.15" etag="PjLAD6P6fb-BrsjFLFyg" version="14.4.8" type="github">
  <diagram id="XCDGeq4y1gVuOVBMc50G" name="Page-1">
    <mxGraphModel dx="703" dy="645" grid="1" gridSize="10" guides="1" tooltips="1" connect="1" arrows="1" fold="1" page="1" pageScale="1" pageWidth="827" pageHeight="1169" math="0" shadow="0">
      <root>
        <mxCell id="0" />
        <mxCell id="1" parent="0" />
        <mxCell id="dmWLHnPNyjScOI13xTn_-1" value="Tests" style="rounded=1;whiteSpace=wrap;html=1;" vertex="1" parent="1">
          <mxGeometry x="360" y="200" width="80" height="40" as="geometry" />
        </mxCell>
        <mxCell id="dmWLHnPNyjScOI13xTn_-2" value="Question" style="rounded=1;whiteSpace=wrap;html=1;" vertex="1" parent="1">
          <mxGeometry x="500" y="200" width="80" height="40" as="geometry" />
        </mxCell>
        <mxCell id="dmWLHnPNyjScOI13xTn_-3" value="Answer" style="rounded=1;whiteSpace=wrap;html=1;" vertex="1" parent="1">
          <mxGeometry x="640" y="200" width="80" height="40" as="geometry" />
        </mxCell>
        <mxCell id="dmWLHnPNyjScOI13xTn_-6" value="Result" style="rounded=1;whiteSpace=wrap;html=1;" vertex="1" parent="1">
          <mxGeometry x="220" y="200" width="80" height="40" as="geometry" />
        </mxCell>
        <mxCell id="dmWLHnPNyjScOI13xTn_-7" value="User" style="rounded=1;whiteSpace=wrap;html=1;" vertex="1" parent="1">
          <mxGeometry x="80" y="200" width="80" height="40" as="geometry" />
        </mxCell>
        <mxCell id="dmWLHnPNyjScOI13xTn_-8" value="&lt;span&gt;Category&lt;/span&gt;" style="rounded=1;whiteSpace=wrap;html=1;" vertex="1" parent="1">
          <mxGeometry x="360" y="290" width="80" height="40" as="geometry" />
        </mxCell>
        <mxCell id="dmWLHnPNyjScOI13xTn_-13" value="" style="edgeStyle=entityRelationEdgeStyle;fontSize=12;html=1;endArrow=ERzeroToMany;startArrow=ERmandOne;strokeColor=#000000;exitX=1;exitY=0.5;" edge="1" parent="1">
          <mxGeometry width="100" height="100" relative="1" as="geometry">
            <mxPoint x="580" y="219.5" as="sourcePoint" />
            <mxPoint x="640" y="220" as="targetPoint" />
          </mxGeometry>
        </mxCell>
        <mxCell id="dmWLHnPNyjScOI13xTn_-14" value="" style="edgeStyle=entityRelationEdgeStyle;fontSize=12;html=1;endArrow=ERzeroToMany;startArrow=ERmandOne;strokeColor=#000000;entryX=0;entryY=0.5;exitX=1;exitY=0.5;entryDx=0;entryDy=0;" edge="1" parent="1" target="dmWLHnPNyjScOI13xTn_-2">
          <mxGeometry width="100" height="100" relative="1" as="geometry">
            <mxPoint x="440" y="219.5" as="sourcePoint" />
            <mxPoint x="580" y="219.5" as="targetPoint" />
          </mxGeometry>
        </mxCell>
        <mxCell id="dmWLHnPNyjScOI13xTn_-17" value="" style="fontSize=12;html=1;endArrow=ERzeroToMany;startArrow=ERmandOne;strokeColor=#000000;" edge="1" parent="1">
          <mxGeometry width="100" height="100" relative="1" as="geometry">
            <mxPoint x="360" y="220" as="sourcePoint" />
            <mxPoint x="300" y="219.5" as="targetPoint" />
          </mxGeometry>
        </mxCell>
        <mxCell id="dmWLHnPNyjScOI13xTn_-22" value="" style="fontSize=12;html=1;endArrow=ERzeroToMany;startArrow=ERzeroToOne;strokeColor=#000000;" edge="1" parent="1">
          <mxGeometry width="100" height="100" relative="1" as="geometry">
            <mxPoint x="399.5" y="290" as="sourcePoint" />
            <mxPoint x="399.5" y="240" as="targetPoint" />
          </mxGeometry>
        </mxCell>
        <mxCell id="dmWLHnPNyjScOI13xTn_-23" value="" style="edgeStyle=orthogonalEdgeStyle;fontSize=12;html=1;endArrow=ERzeroToMany;startArrow=ERzeroToOne;strokeColor=#000000;exitX=0.607;exitY=0.994;exitPerimeter=0;" edge="1" parent="1">
          <mxGeometry width="100" height="100" relative="1" as="geometry">
            <mxPoint x="120.04000000000002" y="199.64" as="sourcePoint" />
            <mxPoint x="400" y="200" as="targetPoint" />
            <Array as="points">
              <mxPoint x="120" y="170" />
              <mxPoint x="400" y="170" />
              <mxPoint x="400" y="200" />
            </Array>
          </mxGeometry>
        </mxCell>
        <mxCell id="dmWLHnPNyjScOI13xTn_-24" value="author" style="text;html=1;resizable=0;points=[];align=center;verticalAlign=middle;labelBackgroundColor=#ffffff;" vertex="1" connectable="0" parent="dmWLHnPNyjScOI13xTn_-23">
          <mxGeometry x="-0.1625" y="-2" relative="1" as="geometry">
            <mxPoint x="21.640000000000043" y="-12" as="offset" />
          </mxGeometry>
        </mxCell>
        <mxCell id="dmWLHnPNyjScOI13xTn_-25" value="" style="edgeStyle=entityRelationEdgeStyle;fontSize=12;html=1;endArrow=ERzeroToMany;startArrow=ERmandOne;strokeColor=#000000;entryX=0;entryY=0.5;exitX=1;exitY=0.5;entryDx=0;entryDy=0;" edge="1" parent="1">
          <mxGeometry width="100" height="100" relative="1" as="geometry">
            <mxPoint x="160" y="219.5" as="sourcePoint" />
            <mxPoint x="220" y="220" as="targetPoint" />
          </mxGeometry>
        </mxCell>
      </root>
    </mxGraphModel>
  </diagram>
</mxfile>
